<svg width="260" height="220" viewBox="0 0 260 220" fill="none" xmlns="http://www.w3.org/2000/svg">
<path fill-rule="evenodd" clip-rule="evenodd" d="M123.614 4.10111C116.719 9.59911 111.709 16.1991 107.224 25.6951C101.474 37.8681 100.232 44.1531 100.188 61.2821L100.15 76.4161L96.1503 73.3391C93.9503 71.6471 88.0923 66.1861 83.1323 61.2051C72.6973 50.7251 68.0113 42.4501 66.2773 31.4441L65.1963 24.5771L56.6733 24.8621L48.1503 25.1481L48.4603 30.6481C49.2373 44.4351 56.1623 58.8311 68.0713 71.4111C72.5143 76.1051 84.7003 86.7871 95.1503 95.1471C121.853 116.51 129.916 125.57 134.757 139.648C137.944 148.916 137.988 163.411 134.859 173.406C133.048 179.191 132.815 181.118 133.71 182.906C135.566 186.612 143.088 197.648 143.758 197.648C144.894 197.648 150.818 183.306 152.839 175.664C155.47 165.712 155.686 148.712 153.296 139.648C149.436 125.008 142.015 113.179 128.32 99.8371C118.747 90.5101 118.613 90.1911 116.493 71.5461C113.956 49.2361 119.685 30.3721 132.691 18.2061C135.418 15.6551 137.65 13.3761 137.65 13.1421C137.65 12.7621 129.997 0.662114 129.343 0.00811416C129.198 -0.137886 126.62 1.70411 123.614 4.10111ZM83.4233 10.8291C74.7403 19.5241 74.4683 33.7051 82.8353 41.4001L85.2843 43.6531L89.3883 40.1401C97.4283 33.2581 99.1323 20.0501 93.0863 11.4721C91.4713 9.18111 89.6073 7.12711 88.9433 6.90811C88.2793 6.68911 85.7953 8.45311 83.4233 10.8291ZM159.703 18.2261C154.718 26.0861 154.579 33.2051 159.252 41.3331C161.602 45.4201 166.343 49.6481 168.576 49.6481C170.354 49.6481 175.436 40.8741 176.168 36.5411C177.262 30.0661 174.995 23.0441 170.194 18.0331C167.883 15.6211 165.231 13.6481 164.299 13.6481C163.368 13.6481 161.299 15.7081 159.703 18.2261ZM192.334 25.3981C192.095 25.8111 191.592 28.6921 191.215 31.8011C190.832 34.9601 188.983 40.6961 187.023 44.8011C184.114 50.8961 181.571 54.0661 172.109 63.3981C165.836 69.5861 160.269 74.6481 159.738 74.6481C159.207 74.6481 158.461 72.5101 158.081 69.8981C156.467 58.8091 149.123 43.7761 140.975 34.8801L136.15 29.6121L131.003 35.7021L125.857 41.7911L131.23 48.9331C138.617 58.7531 142.123 68.5291 142.138 79.3501C142.15 87.5271 142.138 87.5631 138.286 91.5081C136.161 93.6851 134.586 95.9151 134.786 96.4651C134.986 97.0151 137.51 99.9521 140.395 102.991L145.639 108.517L160.93 96.3331C182.923 78.8061 187.154 75.0071 193.683 66.9201C203.192 55.1431 209.57 39.5371 209.633 27.8981L209.65 24.6481H201.209C196.566 24.6481 192.573 24.9851 192.334 25.3981ZM26.1503 54.7831C22.3003 55.8741 18.7963 57.1171 18.3633 57.5451C17.3723 58.5231 21.7923 70.9361 26.4113 80.1481C31.1183 89.5351 36.3813 97.1421 44.6493 106.509L51.5273 114.302L46.5903 115.567C35.0733 118.519 16.7233 129.679 7.26034 139.487L3.37034 143.519L8.76034 148.545C11.7253 151.31 14.6283 153.589 15.2133 153.61C15.7983 153.631 17.5983 152.252 19.2133 150.546C23.2833 146.248 32.9903 139.459 40.1503 135.905C47.8823 132.067 54.4693 129.974 63.0053 128.644C69.6603 127.607 70.0123 127.661 75.0263 130.491C80.9663 133.843 94.3103 139.657 96.0053 139.63C96.6353 139.62 98.2083 136.358 99.5023 132.38C100.795 128.402 102.04 124.677 102.267 124.101C102.495 123.525 99.1873 121.624 94.9163 119.875C85.4733 116.009 71.1813 106.872 63.3973 99.7241C52.3823 89.6101 41.7803 73.2131 36.8203 58.6231C35.8183 55.6761 34.5833 53.1591 34.0743 53.0311C33.5663 52.9031 30.0003 53.6911 26.1503 54.7831ZM230.65 56.0641C201.413 66.3651 181.706 88.6801 179.003 114.546C178.481 119.543 178.001 120.713 176.26 121.237C170.383 123.005 157.657 129.028 157.708 130.017C157.863 133.062 161.588 145.122 162.317 144.939C162.775 144.823 167.339 142.902 172.459 140.67C197.409 129.791 222.632 127.937 245.858 135.274C250.247 136.66 253.934 137.649 254.052 137.471C254.625 136.607 259.655 124.065 259.653 123.507C259.649 122.553 252.906 120.03 243.491 117.46C236.134 115.451 232.813 115.18 215.335 115.165L195.521 115.148L196.139 111.648C197.435 104.307 203.304 93.9571 209.923 87.3381C216.677 80.5841 230.318 72.7681 239.297 70.5071C241.691 69.9041 243.64 69.1261 243.627 68.7791C243.497 65.1761 239.733 54.1131 238.587 53.9621C237.796 53.8591 234.225 54.8041 230.65 56.0641ZM226.65 86.8991C222.219 89.2651 217.432 94.9741 216.156 99.4141C215.597 101.358 216.12 101.96 219.827 103.642C231.039 108.73 244.419 103.63 249.07 92.4951C250.571 88.9011 250.552 88.8131 247.873 87.0251C246.08 85.8291 242.759 85.0871 238.15 84.8521C232.249 84.5521 230.444 84.8741 226.65 86.8991ZM4.88534 96.6281C-0.23666 98.9531 -0.993658 100.502 1.05734 104.468C4.42734 110.985 12.8953 115.648 21.3593 115.648C25.8533 115.648 33.9933 111.797 34.4473 109.457C34.9273 106.976 28.5073 99.4891 23.7433 96.9741C18.2363 94.0681 10.8253 93.9321 4.88534 96.6281ZM110.84 122.898C109.754 124.685 107.604 129.523 106.061 133.648C103.458 140.606 103.252 142.232 103.203 156.148C103.157 169.176 103.458 172.134 105.494 178.648C108.837 189.343 115.567 201.842 123.128 211.398L129.655 219.648H142.652C149.801 219.648 155.633 219.31 155.612 218.898C155.591 218.486 153.539 216.573 151.052 214.648C142.846 208.297 132.671 195.606 127.398 185.148C120.065 170.601 118.289 153.96 122.613 140.32C124.684 133.789 124.703 133.377 123.05 130.82C120.238 126.473 114.472 119.648 113.611 119.648C113.172 119.648 111.925 121.111 110.84 122.898ZM106.974 213.975C104.128 216.27 101.765 218.486 101.724 218.898C101.683 219.31 105.968 219.648 111.246 219.648H120.842L117.349 214.932C115.427 212.339 113.472 210.123 113.003 210.01C112.534 209.896 109.821 211.68 106.974 213.975Z" fill="#B8CFCE"/>
</svg>
