<svg width="86" height="73" viewBox="0 0 86 73" fill="none" xmlns="http://www.w3.org/2000/svg">
<path fill-rule="evenodd" clip-rule="evenodd" d="M40.8698 1.35698C38.5902 3.17617 36.9338 5.35999 35.4509 8.50205C33.5498 12.5299 33.1392 14.6095 33.1246 20.2771L33.1121 25.2847L31.7896 24.2666C31.0622 23.7067 29.1254 21.8998 27.4855 20.2517C24.0355 16.784 22.4862 14.046 21.9129 10.4043L21.5555 8.13212L18.7376 8.22643L15.9196 8.32106L16.0221 10.1409C16.279 14.7028 18.5686 19.4662 22.506 23.6287C23.975 25.1818 28.0039 28.7163 31.459 31.4825C40.2876 38.5511 42.9534 41.5489 44.554 46.207C45.6077 49.2737 45.6222 54.0698 44.5877 57.377C43.9889 59.2911 43.9119 59.9287 44.2078 60.5203C44.8215 61.7466 47.3084 65.3982 47.5299 65.3982C47.9055 65.3982 49.8641 60.6527 50.5323 58.1241C51.4022 54.8312 51.4736 49.2062 50.6834 46.207C49.4072 41.3629 46.9536 37.4489 42.4258 33.0343C39.2607 29.9482 39.2164 29.8426 38.5155 23.6733C37.6767 16.2913 39.5708 10.0496 43.8709 6.02407C44.7725 5.17999 45.5105 4.42591 45.5105 4.34849C45.5105 4.22275 42.9802 0.219082 42.764 0.00268483C42.716 -0.0456239 41.8637 0.56386 40.8698 1.35698ZM27.5817 3.58316C24.7109 6.46018 24.621 11.1524 27.3873 13.6986L28.197 14.444L29.5539 13.2816C32.2121 11.0045 32.7755 6.63422 30.7766 3.79592C30.2426 3.03786 29.6263 2.35823 29.4068 2.28577C29.1872 2.21331 28.366 2.79698 27.5817 3.58316ZM52.8017 6.03069C51.1536 8.63142 51.1076 10.987 52.6526 13.6764C53.4296 15.0287 54.9971 16.4277 55.7353 16.4277C56.3232 16.4277 58.0034 13.5245 58.2454 12.0908C58.6071 9.94833 57.8576 7.62488 56.2703 5.96683C55.5062 5.16874 54.6294 4.51591 54.3213 4.51591C54.0135 4.51591 53.3294 5.19753 52.8017 6.03069ZM63.5903 8.40378C63.5113 8.54043 63.345 9.4937 63.2203 10.5224C63.0937 11.5677 62.4824 13.4656 61.8344 14.8239C60.8726 16.8406 60.0318 17.8895 56.9034 20.9773C54.8294 23.0248 52.9889 24.6997 52.8133 24.6997C52.6377 24.6997 52.3911 23.9923 52.2654 23.128C51.7318 19.4589 49.3037 14.4847 46.6098 11.5412L45.0145 9.79811L43.3128 11.8132L41.6114 13.8279L43.3879 16.1911C45.8302 19.4403 46.9894 22.675 46.9943 26.2555C46.9983 28.9611 46.9943 28.9731 45.7208 30.2784C45.0182 30.9987 44.4974 31.7366 44.5636 31.9186C44.6297 32.1006 45.4642 33.0724 46.418 34.0779L48.1518 35.9064L53.2074 31.8749C60.4788 26.0755 61.8777 24.8185 64.0363 22.1427C67.1802 18.2459 69.2889 13.0821 69.3098 9.23098L69.3154 8.15562H66.5246C64.9895 8.15562 63.6693 8.26712 63.5903 8.40378ZM8.64592 18.1267C7.37302 18.4877 6.21452 18.899 6.07136 19.0406C5.74371 19.3642 7.20507 23.4715 8.73222 26.5196C10.2885 29.6256 12.0285 32.1426 14.7621 35.2419L17.0362 37.8205L15.4039 38.2391C11.5961 39.2158 5.52913 42.9085 2.40044 46.1538L1.11432 47.4879L2.89638 49.1509C3.87668 50.0658 4.83648 50.8199 5.02989 50.8268C5.22331 50.8338 5.81843 50.3775 6.35239 49.813C7.69803 48.3909 10.9074 46.1445 13.2747 44.9686C15.831 43.6986 18.0089 43.0061 20.8311 42.566C23.0314 42.2229 23.1477 42.2408 24.8055 43.1772C26.7694 44.2863 31.1812 46.21 31.7416 46.2011C31.9499 46.1978 32.47 45.1184 32.8978 43.8022C33.3253 42.4859 33.737 41.2534 33.812 41.0628C33.8874 40.8722 32.7937 40.2432 31.3816 39.6645C28.2595 38.3853 23.5342 35.3621 20.9607 32.9969C17.3188 29.6504 13.8136 24.2249 12.1737 19.3973C11.8424 18.4222 11.4341 17.5894 11.2658 17.547C11.0978 17.5047 9.91883 17.7654 8.64592 18.1267ZM76.2585 18.5506C66.592 21.959 60.0764 29.3426 59.1828 37.9012C59.0102 39.5547 58.8515 39.9418 58.2759 40.1152C56.3328 40.7002 52.1253 42.6931 52.1421 43.0203C52.1934 44.0279 53.4249 48.0183 53.666 47.9577C53.8174 47.9194 55.3264 47.2837 57.0192 46.5452C65.2682 42.9455 73.6076 42.3321 81.2866 44.7598C82.7377 45.2184 83.9567 45.5456 83.9958 45.4867C84.1852 45.2008 85.8482 41.0509 85.8476 40.8663C85.8462 40.5506 83.6169 39.7158 80.504 38.8654C78.0716 38.2007 76.9736 38.111 71.195 38.1061L64.644 38.1004L64.8483 36.9423C65.2768 34.5133 67.2173 31.0887 69.4057 28.8986C71.6387 26.6638 76.1487 24.0777 79.1174 23.3295C79.9089 23.13 80.5533 22.8726 80.549 22.7578C80.506 21.5656 79.2616 17.9051 78.8827 17.8551C78.6211 17.821 77.4405 18.1337 76.2585 18.5506ZM74.936 28.7533C73.471 29.5362 71.8883 31.4252 71.4664 32.8943C71.2816 33.5376 71.4545 33.7368 72.6801 34.2933C76.3871 35.9768 80.8109 34.2893 82.3486 30.605C82.8448 29.4158 82.8386 29.3867 81.9528 28.795C81.36 28.3993 80.262 28.1538 78.7382 28.076C76.7872 27.9768 76.1904 28.0833 74.936 28.7533ZM1.61521 31.9725C-0.0782453 32.7418 -0.328527 33.2543 0.349582 34.5666C1.46378 36.723 4.26351 38.2659 7.06191 38.2659C8.54773 38.2659 11.239 36.9916 11.3891 36.2174C11.5478 35.3965 9.42521 32.9192 7.85011 32.087C6.02937 31.1254 3.57911 31.0804 1.61521 31.9725ZM36.6465 40.6648C36.2874 41.2561 35.5765 42.8569 35.0664 44.2217C34.2058 46.524 34.1377 47.062 34.1215 51.6666C34.1063 55.9773 34.2058 56.9561 34.8789 59.1114C35.9842 62.6502 38.2093 66.7859 40.7092 69.9478L42.8671 72.6776H47.1643C49.5279 72.6776 51.4561 72.5658 51.4491 72.4294C51.4422 72.2931 50.7638 71.6601 49.9415 71.0232C47.2284 68.9218 43.8643 64.7225 42.1209 61.2622C39.6965 56.4488 39.1093 50.9426 40.5389 46.4294C41.2236 44.2684 41.2299 44.1321 40.6834 43.286C39.7537 41.8477 37.8473 39.5894 37.5626 39.5894C37.4175 39.5894 37.0052 40.0735 36.6465 40.6648ZM35.3683 70.8005C34.4273 71.5599 33.646 72.2931 33.6325 72.4294C33.6189 72.5658 35.0356 72.6776 36.7807 72.6776H39.9534L38.7985 71.1172C38.163 70.2592 37.5167 69.5259 37.3616 69.4886C37.2065 69.4508 36.3095 70.0411 35.3683 70.8005Z" fill="#B8CFCE"/>
</svg>
